<svg xmlns="http://www.w3.org/2000/svg" viewBox="0 0 35 41">
  <defs>
    <style>
      .cls-1 {
        fill: #cc544b;
      }

      .cls-2 {
        fill: none;
      }

      .cls-3, .cls-7 {
        fill: #df594e;
      }

      .cls-4, .cls-5 {
        fill: #fff;
      }

      .cls-5 {
        font-size: 6px;
        font-family: Nunito-Bold, Nunito;
        font-weight: 700;
      }

      .cls-6, .cls-7 {
        stroke: none;
      }
    </style>
  </defs>
  <g id="pdf" transform="translate(0 0)">
    <path id="Path_352" data-name="Path 352" class="cls-1" d="M1.105,5.351,12.061,0V10.933Z" transform="translate(-0.294 18.222)"/>
    <g id="Path_3" data-name="Path 3" class="cls-2" transform="translate(10.862 0)">
      <path class="cls-6" d="M1.676,0h14.08c5,5.275,5.327,6.015,8.381,9.553V34.675a1.725,1.725,0,0,1-1.676,1.769H1.676A1.725,1.725,0,0,1,0,34.675V1.769A1.725,1.725,0,0,1,1.676,0Z"/>
      <path class="cls-7" d="M 1.676239013671875 1.000003814697266 C 1.303359985351562 1.000003814697266 1 1.34503173828125 1 1.769123077392578 L 1 34.67490386962891 C 1 35.09899520874023 1.303359985351562 35.44402313232422 1.676239013671875 35.44402313232422 L 22.46162033081055 35.44402313232422 C 22.83449935913086 35.44402313232422 23.13785934448242 35.09899520874023 23.13785934448242 34.67490386962891 L 23.13785934448242 9.924457550048828 C 22.31139755249023 8.961925506591797 21.6949348449707 8.216850280761719 21.09703063964844 7.494213104248047 C 19.72349548339844 5.834129333496094 18.531982421875 4.394008636474609 15.32611560821533 1.000003814697266 L 1.676239013671875 1.000003814697266 M 1.676239013671875 3.814697265625e-06 L 15.75665950775146 3.814697265625e-06 C 20.75485992431641 5.275173187255859 21.08337020874023 6.015033721923828 24.13785934448242 9.55328369140625 L 24.13785934448242 34.67490386962891 C 24.13785934448242 35.65195465087891 23.38737869262695 36.44402313232422 22.46162033081055 36.44402313232422 L 1.676239013671875 36.44402313232422 C 0.7504787445068359 36.44402313232422 0 35.65195465087891 0 34.67490386962891 L 0 1.769123077392578 C 0 0.7920646667480469 0.7504787445068359 3.814697265625e-06 1.676239013671875 3.814697265625e-06 Z"/>
    </g>
    <g id="Intersection_1" data-name="Intersection 1" class="cls-2" transform="translate(26.25 0)">
      <path class="cls-6" d="M2,9.736a2,2,0,0,1-2-2V.178Q0,.088.008,0h.36C5.354,5.262,5.694,6.012,8.727,9.527a1.991,1.991,0,0,1-.892.21Z"/>
      <path class="cls-7" d="M 6.741208076477051 8.736200332641602 C 6.369997024536133 8.293609619140625 6.03612232208252 7.890121459960938 5.707880973815918 7.4934401512146 C 4.49778938293457 6.031031608581543 3.428918361663818 4.739283084869385 1.000000834465027 2.13218092918396 L 1.000000834465027 7.736400127410889 C 1.000000834465027 8.287690162658691 1.448510766029358 8.736200332641602 1.999800801277161 8.736200332641602 L 6.741208076477051 8.736200332641602 M 7.834500789642334 9.736200332641602 L 1.999800801277161 9.736200332641602 C 0.8955007791519165 9.736200332641602 7.867431577324169e-07 8.840700149536133 7.867431577324169e-07 7.736400127410889 L 7.867431577324169e-07 0.1782001703977585 C 7.867431577324169e-07 0.1181501671671867 0.002650786656886339 0.05871016532182693 0.007830786518752575 1.663208024638152e-07 L 0.3681007921695709 1.663208024638152e-07 C 5.353890895843506 5.262279987335205 5.693700790405273 6.012030124664307 8.726580619812012 9.526599884033203 C 8.458010673522949 9.660719871520996 8.155060768127441 9.736200332641602 7.834500789642334 9.736200332641602 Z"/>
    </g>
    <rect id="Rectangle_142" data-name="Rectangle 142" class="cls-3" width="21.724" height="10.022" rx="1.5" transform="translate(0 13.667)"/>
    <rect id="Rectangle_143" data-name="Rectangle 143" class="cls-3" width="10.862" height="10.933" rx="1.5" transform="translate(18.103 30.067)"/>
    <path id="Path_351" data-name="Path 351" class="cls-4" d="M5.727,2.01h0L3.794.1a.355.355,0,0,0-.5,0,.344.344,0,0,0,0,.491l1.34,1.323H.351a.347.347,0,1,0,0,.694H4.637L3.3,3.934a.344.344,0,0,0,0,.491.354.354,0,0,0,.5,0L5.726,2.516h0a.344.344,0,0,0,0-.505Z" transform="translate(26.251 32.8) rotate(90)"/>
    <text id="PDF-2" data-name="PDF" class="cls-5" transform="translate(3.621 19.667)"><tspan x="0" y="0">PDF</tspan></text>
  </g>
</svg>
